<mxfile host="app.diagrams.net" agent="Mozilla/5.0 (Windows NT 10.0; Win64; x64) AppleWebKit/537.36 (KHTML, like Gecko) Chrome/133.0.0.0 Safari/537.36" version="26.1.0">
  <diagram name="Page-1" id="Lr_hTLrvO7z2If7fqPYB">
    <mxGraphModel dx="2284" dy="772" grid="1" gridSize="10" guides="1" tooltips="1" connect="1" arrows="1" fold="1" page="1" pageScale="1" pageWidth="850" pageHeight="1100" math="0" shadow="0">
      <root>
        <mxCell id="0" />
        <mxCell id="1" parent="0" />
        <mxCell id="MEtjZm8ZYOdsreHUZ4ZR-8" style="edgeStyle=orthogonalEdgeStyle;rounded=0;orthogonalLoop=1;jettySize=auto;html=1;exitX=0.5;exitY=1;exitDx=0;exitDy=0;" edge="1" parent="1" source="MEtjZm8ZYOdsreHUZ4ZR-5">
          <mxGeometry relative="1" as="geometry">
            <mxPoint x="390" y="380" as="targetPoint" />
          </mxGeometry>
        </mxCell>
        <mxCell id="MEtjZm8ZYOdsreHUZ4ZR-5" value="num1" style="rounded=1;whiteSpace=wrap;html=1;" vertex="1" parent="1">
          <mxGeometry x="80" y="70" width="120" height="60" as="geometry" />
        </mxCell>
        <mxCell id="MEtjZm8ZYOdsreHUZ4ZR-12" style="edgeStyle=orthogonalEdgeStyle;rounded=0;orthogonalLoop=1;jettySize=auto;html=1;exitX=0.5;exitY=1;exitDx=0;exitDy=0;" edge="1" parent="1" source="MEtjZm8ZYOdsreHUZ4ZR-6">
          <mxGeometry relative="1" as="geometry">
            <mxPoint x="390" y="380" as="targetPoint" />
          </mxGeometry>
        </mxCell>
        <mxCell id="MEtjZm8ZYOdsreHUZ4ZR-6" value="num2" style="rounded=1;whiteSpace=wrap;html=1;" vertex="1" parent="1">
          <mxGeometry x="330" y="70" width="120" height="60" as="geometry" />
        </mxCell>
        <mxCell id="MEtjZm8ZYOdsreHUZ4ZR-11" style="edgeStyle=orthogonalEdgeStyle;rounded=0;orthogonalLoop=1;jettySize=auto;html=1;exitX=0.5;exitY=1;exitDx=0;exitDy=0;" edge="1" parent="1" source="MEtjZm8ZYOdsreHUZ4ZR-7">
          <mxGeometry relative="1" as="geometry">
            <mxPoint x="390" y="380" as="targetPoint" />
          </mxGeometry>
        </mxCell>
        <mxCell id="MEtjZm8ZYOdsreHUZ4ZR-7" value="num3" style="rounded=1;whiteSpace=wrap;html=1;" vertex="1" parent="1">
          <mxGeometry x="570" y="70" width="120" height="60" as="geometry" />
        </mxCell>
        <mxCell id="MEtjZm8ZYOdsreHUZ4ZR-15" style="edgeStyle=orthogonalEdgeStyle;rounded=0;orthogonalLoop=1;jettySize=auto;html=1;exitX=1;exitY=0.5;exitDx=0;exitDy=0;" edge="1" parent="1" source="MEtjZm8ZYOdsreHUZ4ZR-13">
          <mxGeometry relative="1" as="geometry">
            <mxPoint x="550" y="425" as="targetPoint" />
          </mxGeometry>
        </mxCell>
        <mxCell id="MEtjZm8ZYOdsreHUZ4ZR-17" style="edgeStyle=orthogonalEdgeStyle;rounded=0;orthogonalLoop=1;jettySize=auto;html=1;exitX=0;exitY=0.5;exitDx=0;exitDy=0;" edge="1" parent="1" source="MEtjZm8ZYOdsreHUZ4ZR-13">
          <mxGeometry relative="1" as="geometry">
            <mxPoint x="240" y="425" as="targetPoint" />
          </mxGeometry>
        </mxCell>
        <mxCell id="MEtjZm8ZYOdsreHUZ4ZR-13" value="1&amp;gt;2" style="rhombus;whiteSpace=wrap;html=1;" vertex="1" parent="1">
          <mxGeometry x="335" y="380" width="110" height="90" as="geometry" />
        </mxCell>
        <mxCell id="MEtjZm8ZYOdsreHUZ4ZR-16" value="Yes" style="text;html=1;align=center;verticalAlign=middle;resizable=0;points=[];autosize=1;strokeColor=none;fillColor=none;" vertex="1" parent="1">
          <mxGeometry x="460" y="378" width="40" height="30" as="geometry" />
        </mxCell>
        <mxCell id="MEtjZm8ZYOdsreHUZ4ZR-18" value="No" style="text;html=1;align=center;verticalAlign=middle;resizable=0;points=[];autosize=1;strokeColor=none;fillColor=none;" vertex="1" parent="1">
          <mxGeometry x="280" y="388" width="40" height="30" as="geometry" />
        </mxCell>
        <mxCell id="MEtjZm8ZYOdsreHUZ4ZR-22" style="edgeStyle=orthogonalEdgeStyle;rounded=0;orthogonalLoop=1;jettySize=auto;html=1;exitX=0.5;exitY=1;exitDx=0;exitDy=0;" edge="1" parent="1" source="MEtjZm8ZYOdsreHUZ4ZR-19">
          <mxGeometry relative="1" as="geometry">
            <mxPoint x="600" y="550" as="targetPoint" />
          </mxGeometry>
        </mxCell>
        <mxCell id="MEtjZm8ZYOdsreHUZ4ZR-23" style="edgeStyle=orthogonalEdgeStyle;rounded=0;orthogonalLoop=1;jettySize=auto;html=1;exitX=1;exitY=0.5;exitDx=0;exitDy=0;" edge="1" parent="1" source="MEtjZm8ZYOdsreHUZ4ZR-19">
          <mxGeometry relative="1" as="geometry">
            <mxPoint x="710" y="425" as="targetPoint" />
          </mxGeometry>
        </mxCell>
        <mxCell id="MEtjZm8ZYOdsreHUZ4ZR-19" value="1&amp;gt;3" style="rhombus;whiteSpace=wrap;html=1;" vertex="1" parent="1">
          <mxGeometry x="550" y="385" width="100" height="80" as="geometry" />
        </mxCell>
        <mxCell id="MEtjZm8ZYOdsreHUZ4ZR-21" style="edgeStyle=orthogonalEdgeStyle;rounded=0;orthogonalLoop=1;jettySize=auto;html=1;exitX=0.5;exitY=1;exitDx=0;exitDy=0;" edge="1" parent="1" source="MEtjZm8ZYOdsreHUZ4ZR-20">
          <mxGeometry relative="1" as="geometry">
            <mxPoint x="190" y="550" as="targetPoint" />
          </mxGeometry>
        </mxCell>
        <mxCell id="MEtjZm8ZYOdsreHUZ4ZR-24" style="edgeStyle=orthogonalEdgeStyle;rounded=0;orthogonalLoop=1;jettySize=auto;html=1;exitX=0;exitY=0.5;exitDx=0;exitDy=0;" edge="1" parent="1" source="MEtjZm8ZYOdsreHUZ4ZR-20">
          <mxGeometry relative="1" as="geometry">
            <mxPoint x="90" y="425" as="targetPoint" />
          </mxGeometry>
        </mxCell>
        <mxCell id="MEtjZm8ZYOdsreHUZ4ZR-20" value="2&amp;gt;3" style="rhombus;whiteSpace=wrap;html=1;" vertex="1" parent="1">
          <mxGeometry x="140" y="385" width="100" height="80" as="geometry" />
        </mxCell>
        <mxCell id="MEtjZm8ZYOdsreHUZ4ZR-25" value="3 is the greatest" style="rounded=1;whiteSpace=wrap;html=1;" vertex="1" parent="1">
          <mxGeometry x="-30" y="395" width="120" height="60" as="geometry" />
        </mxCell>
        <mxCell id="MEtjZm8ZYOdsreHUZ4ZR-26" value="2 is the greatest" style="rounded=1;whiteSpace=wrap;html=1;" vertex="1" parent="1">
          <mxGeometry x="130" y="550" width="120" height="60" as="geometry" />
        </mxCell>
        <mxCell id="MEtjZm8ZYOdsreHUZ4ZR-27" value="1 is the greatest" style="rounded=1;whiteSpace=wrap;html=1;" vertex="1" parent="1">
          <mxGeometry x="540" y="550" width="120" height="60" as="geometry" />
        </mxCell>
        <mxCell id="MEtjZm8ZYOdsreHUZ4ZR-28" value="3 is the greatest" style="rounded=1;whiteSpace=wrap;html=1;" vertex="1" parent="1">
          <mxGeometry x="720" y="400" width="120" height="60" as="geometry" />
        </mxCell>
        <mxCell id="MEtjZm8ZYOdsreHUZ4ZR-29" value="no" style="text;html=1;align=center;verticalAlign=middle;resizable=0;points=[];autosize=1;strokeColor=none;fillColor=none;" vertex="1" parent="1">
          <mxGeometry x="660" y="385" width="40" height="30" as="geometry" />
        </mxCell>
        <mxCell id="MEtjZm8ZYOdsreHUZ4ZR-30" value="NO" style="text;html=1;align=center;verticalAlign=middle;resizable=0;points=[];autosize=1;strokeColor=none;fillColor=none;" vertex="1" parent="1">
          <mxGeometry x="100" y="385" width="40" height="30" as="geometry" />
        </mxCell>
        <mxCell id="MEtjZm8ZYOdsreHUZ4ZR-31" value="Yes" style="text;html=1;align=center;verticalAlign=middle;resizable=0;points=[];autosize=1;strokeColor=none;fillColor=none;" vertex="1" parent="1">
          <mxGeometry x="140" y="498" width="40" height="30" as="geometry" />
        </mxCell>
        <mxCell id="MEtjZm8ZYOdsreHUZ4ZR-32" value="Yes" style="text;html=1;align=center;verticalAlign=middle;resizable=0;points=[];autosize=1;strokeColor=none;fillColor=none;" vertex="1" parent="1">
          <mxGeometry x="540" y="498" width="40" height="30" as="geometry" />
        </mxCell>
      </root>
    </mxGraphModel>
  </diagram>
</mxfile>
